M48
; DRILL file {KiCad 8.0.6} date 2024-11-10T21:15:53-0600
; FORMAT={-:-/ absolute / metric / decimal}
; #@! TF.CreationDate,2024-11-10T21:15:53-06:00
; #@! TF.GenerationSoftware,Kicad,Pcbnew,8.0.6
; #@! TF.FileFunction,Plated,1,2,PTH
FMAT,2
METRIC
; #@! TA.AperFunction,Plated,PTH,ViaDrill
T1C0.300
; #@! TA.AperFunction,Plated,PTH,ComponentDrill
T2C0.300
; #@! TA.AperFunction,Plated,PTH,ComponentDrill
T3C0.500
; #@! TA.AperFunction,Plated,PTH,ComponentDrill
T4C0.700
; #@! TA.AperFunction,Plated,PTH,ComponentDrill
T5C0.750
; #@! TA.AperFunction,Plated,PTH,ComponentDrill
T6C0.800
; #@! TA.AperFunction,Plated,PTH,ComponentDrill
T7C0.900
; #@! TA.AperFunction,Plated,PTH,ComponentDrill
T8C1.000
; #@! TA.AperFunction,Plated,PTH,ComponentDrill
T9C1.100
; #@! TA.AperFunction,Plated,PTH,ComponentDrill
T10C1.170
; #@! TA.AperFunction,Plated,PTH,ComponentDrill
T11C1.200
; #@! TA.AperFunction,Plated,PTH,ComponentDrill
T12C1.300
; #@! TA.AperFunction,Plated,PTH,ComponentDrill
T13C1.400
; #@! TA.AperFunction,Plated,PTH,ComponentDrill
T14C2.200
%
G90
G05
T1
X74.199Y-39.449
X75.65Y-39.06
X76.808Y-90.692
X76.95Y-38.82
X77.2Y-51.5
X77.412Y-49.827
X77.52Y-146.89
X77.54Y-113.6
X77.59Y-109.08
X77.7Y-50.6
X77.97Y-105.88
X78.908Y-48.008
X80.264Y-196.088
X81.1Y-105.95
X81.18Y-146.07
X82.15Y-100.5
X82.2Y-102.3
X82.25Y-49.1
X82.3Y-50.1
X82.3Y-51.1
X82.5Y-45.1
X82.78Y-106.82
X83.1Y-93.73
X83.608Y-43.308
X83.8Y-47.3
X84.4Y-49.7
X84.499Y-48.906
X84.55Y-50.75
X87.17Y-108.74
X87.2Y-48.7
X87.5Y-104.2
X87.55Y-73.184
X87.6Y-86.8
X87.8Y-78.728
X87.83Y-82.56
X87.95Y-48.022
X88.2Y-53.3
X88.2Y-96.8
X88.35Y-73.184
X88.502Y-47.443
X88.6Y-94.5
X88.6Y-100.858
X89.0Y-83.3
X89.2Y-72.5
X89.3Y-53.4
X89.45Y-92.95
X89.49Y-91.69
X89.6Y-46.9
X89.8Y-90.1
X90.02Y-116.15
X90.05Y-71.36
X91.1Y-79.5
X94.1Y-42.2
X95.48Y-80.45
X96.49Y-80.5
X96.52Y-88.05
X96.89Y-105.75
X97.19Y-104.16
X97.7Y-47.8
X98.01Y-86.4
X98.36Y-76.2
X98.4Y-54.364
X98.84Y-79.478
X99.1Y-84.71
X99.4Y-48.8
X99.99Y-102.06
X100.3Y-84.62
X100.636Y-97.08
X100.9Y-49.55
X101.6Y-55.6
X102.23Y-49.82
X102.35Y-55.113
X103.1Y-54.8
X103.3Y-51.574
X103.584Y-50.798
X104.0Y-54.5
X104.1Y-53.3
X104.14Y-75.17
X104.7Y-104.108
X105.22Y-177.49
X105.68Y-77.62
X105.87Y-175.82
X106.64Y-106.98
X106.84Y-128.27
X108.2Y-49.75
X108.81Y-87.69
X108.891Y-49.347
X108.92Y-100.74
X108.95Y-53.7
X109.1Y-90.7
X109.7Y-49.095
X109.7Y-53.4
X110.02Y-83.29
X110.459Y-48.8
X110.459Y-53.074
X110.68Y-80.89
X111.06Y-118.17
X111.84Y-111.9
X111.84Y-119.614
X111.99Y-104.77
X112.89Y-109.58
X114.56Y-110.11
X116.02Y-136.22
X116.09Y-139.76
X117.6Y-97.96
X117.78Y-145.26
X117.9Y-44.6
X118.11Y-78.54
X118.33Y-79.98
X118.4Y-81.42
X118.42Y-75.71
X118.81Y-82.44
X119.0Y-34.4
X119.27Y-47.03
X119.57Y-83.28
X119.89Y-90.21
X119.95Y-101.34
X120.06Y-99.04
X120.275Y-49.275
X120.75Y-33.79
X120.92Y-86.22
X120.96Y-88.71
X121.16Y-99.0
X121.22Y-87.39
X121.63Y-33.34
X121.83Y-104.21
X123.3Y-51.2
X123.5Y-53.3
X123.52Y-109.01
X124.2Y-51.3
X124.6Y-53.1
X125.5Y-53.6
X125.895Y-92.145
X126.4Y-45.8
X128.447Y-79.93
X129.69Y-80.68
X129.83Y-81.56
X130.73Y-82.31
X131.74Y-90.12
X131.8Y-35.9
X131.95Y-33.35
X131.95Y-83.07
X132.0Y-41.9
X133.1Y-67.6
X133.18Y-83.83
X133.3Y-64.1
X133.44Y-71.42
X133.48Y-90.72
X133.5Y-98.55
X134.26Y-85.66
X134.3Y-34.2
X134.45Y-86.68
X134.76Y-93.51
X135.2Y-41.8
X135.58Y-93.89
X135.73Y-72.22
X135.81Y-64.87
X135.81Y-137.82
X136.03Y-89.18
X136.91Y-90.21
X139.27Y-77.68
X139.92Y-78.43
X141.03Y-75.684
X141.07Y-49.93
X141.48Y-73.06
X141.6Y-47.0
X141.7Y-71.38
X142.69Y-110.615
X142.7Y-74.984
X142.74Y-132.64
X143.28Y-41.81
X143.48Y-39.363
X144.59Y-71.07
X150.93Y-109.96
X151.665Y-69.225
X153.05Y-69.52
X153.65Y-40.3
X154.16Y-69.47
X155.15Y-70.13
X156.1Y-70.7
X156.98Y-121.11
X157.14Y-70.89
X158.9Y-122.74
X160.06Y-129.13
X162.79Y-89.36
X170.95Y-41.09
X180.16Y-47.17
X180.8Y-159.6
X181.33Y-115.37
X186.46Y-111.69
X187.2Y-182.65
X190.52Y-186.79
X225.06Y-159.56
X227.61Y-85.7
X233.34Y-82.11
X239.17Y-78.17
X247.08Y-74.72
X247.86Y-56.89
X248.86Y-56.89
X250.16Y-56.9
X250.57Y-38.22
X250.72Y-69.17
X251.01Y-74.73
X251.62Y-56.81
X253.16Y-56.73
X253.94Y-51.41
X256.78Y-67.12
X258.505Y-57.469
X258.759Y-73.979
X260.283Y-56.199
X262.569Y-40.451
X262.823Y-50.611
T2
X134.478Y-150.958
X134.478Y-152.258
X134.478Y-153.558
X134.478Y-154.858
X135.778Y-150.958
X135.778Y-152.258
X135.778Y-153.558
X135.778Y-154.858
X163.576Y-150.958
X163.576Y-152.258
X163.576Y-153.558
X163.576Y-154.858
X164.876Y-150.958
X164.876Y-152.258
X164.876Y-153.558
X164.876Y-154.858
X193.66Y-150.114
X193.66Y-151.414
X193.66Y-152.714
X193.66Y-154.014
X194.96Y-150.114
X194.96Y-151.414
X194.96Y-152.714
X194.96Y-154.014
T3
X96.368Y-182.736
X96.368Y-185.276
X96.368Y-187.816
X96.368Y-190.356
X96.368Y-192.896
X96.368Y-195.436
X96.368Y-197.976
X96.368Y-200.516
T4
X191.008Y-202.184
X196.088Y-202.184
X219.95Y-184.62
X225.03Y-184.62
T5
X124.83Y-102.575
X126.1Y-102.575
X127.37Y-102.575
X163.77Y-101.63
X165.04Y-101.63
X166.31Y-101.63
X182.51Y-108.95
X183.78Y-108.95
X185.05Y-108.95
X217.53Y-127.88
X218.8Y-127.88
X220.07Y-127.88
X227.03Y-126.79
X228.3Y-126.79
X229.57Y-126.79
X242.79Y-172.07
X244.06Y-172.07
X244.36Y-207.91
X245.33Y-172.07
X245.63Y-207.91
X246.9Y-207.91
X259.45Y-128.0
X259.46Y-171.96
X260.72Y-128.0
X260.73Y-171.96
X261.99Y-128.0
X262.0Y-171.96
T6
X72.136Y-125.911
X72.136Y-130.52
X72.136Y-135.128
X72.136Y-139.736
X72.136Y-144.345
X72.136Y-148.953
X72.136Y-153.561
X72.136Y-158.169
X73.403Y-212.0
X73.406Y-190.754
X73.406Y-200.914
X78.403Y-212.0
X79.756Y-125.911
X79.756Y-130.52
X79.756Y-135.128
X79.756Y-139.736
X79.756Y-144.345
X79.756Y-148.953
X79.756Y-153.561
X79.756Y-158.169
X85.344Y-52.324
X85.344Y-54.864
X85.344Y-57.404
X85.344Y-59.944
X85.344Y-62.484
X85.344Y-65.024
X85.344Y-67.564
X85.344Y-70.104
X85.344Y-72.644
X85.344Y-75.184
X85.344Y-81.788
X85.344Y-84.328
X85.344Y-86.868
X85.344Y-89.408
X85.344Y-91.948
X85.344Y-94.488
X85.344Y-97.028
X85.344Y-99.568
X85.344Y-102.108
X85.344Y-104.648
X85.344Y-153.67
X85.344Y-163.83
X89.379Y-153.67
X89.379Y-163.83
X92.964Y-52.324
X92.964Y-54.864
X92.964Y-57.404
X92.964Y-59.944
X92.964Y-62.484
X92.964Y-65.024
X92.964Y-67.564
X92.964Y-70.104
X92.964Y-72.644
X92.964Y-75.184
X92.964Y-81.788
X92.964Y-84.328
X92.964Y-86.868
X92.964Y-89.408
X92.964Y-91.948
X92.964Y-94.488
X92.964Y-97.028
X92.964Y-99.568
X92.964Y-102.108
X92.964Y-104.648
X93.414Y-153.67
X93.414Y-163.83
X97.449Y-153.67
X97.449Y-163.83
X101.484Y-153.67
X101.484Y-163.83
X105.52Y-153.67
X105.52Y-163.83
X106.426Y-52.324
X106.426Y-54.864
X106.426Y-57.404
X106.426Y-59.944
X106.426Y-62.484
X106.426Y-65.024
X106.426Y-67.564
X106.426Y-70.104
X106.426Y-72.644
X106.426Y-75.184
X106.926Y-81.788
X106.926Y-84.328
X106.926Y-86.868
X106.926Y-89.408
X106.926Y-91.948
X106.926Y-94.488
X106.926Y-97.028
X106.926Y-99.568
X106.926Y-102.108
X106.926Y-104.648
X109.555Y-153.67
X109.555Y-163.83
X113.59Y-153.67
X113.59Y-163.83
X114.046Y-52.324
X114.046Y-54.864
X114.046Y-57.404
X114.046Y-59.944
X114.046Y-62.484
X114.046Y-65.024
X114.046Y-67.564
X114.046Y-70.104
X114.046Y-72.644
X114.046Y-75.184
X114.546Y-81.788
X114.546Y-84.328
X114.546Y-86.868
X114.546Y-89.408
X114.546Y-91.948
X114.546Y-94.488
X114.546Y-97.028
X114.546Y-99.568
X114.546Y-102.108
X114.546Y-104.648
X116.09Y-114.2
X123.71Y-114.2
X130.08Y-147.238
X131.064Y-52.324
X131.064Y-54.864
X131.064Y-57.404
X131.064Y-59.944
X131.064Y-62.484
X131.064Y-65.024
X131.064Y-67.564
X131.064Y-70.104
X131.064Y-72.644
X131.064Y-75.184
X131.1Y-106.825
X131.1Y-109.365
X132.08Y-147.238
X137.9Y-95.79
X137.9Y-103.41
X138.684Y-52.324
X138.684Y-54.864
X138.684Y-57.404
X138.684Y-59.944
X138.684Y-62.484
X138.684Y-65.024
X138.684Y-67.564
X138.684Y-70.104
X138.684Y-72.644
X138.684Y-75.184
X138.72Y-106.825
X138.72Y-109.365
X143.256Y-149.778
X143.256Y-152.318
X143.256Y-154.858
X146.6Y-107.4
X146.6Y-115.02
X146.6Y-117.39
X146.6Y-125.01
X149.352Y-148.762
X149.352Y-156.382
X150.48Y-99.18
X151.3Y-107.4
X151.3Y-115.02
X157.48Y-147.492
X158.1Y-99.18
X159.48Y-147.492
X160.75Y-96.63
X160.75Y-104.25
X161.3Y-106.925
X161.3Y-109.465
X168.92Y-106.925
X168.92Y-109.465
X171.53Y-124.98
X171.53Y-132.6
X171.55Y-114.92
X171.55Y-122.54
X171.704Y-148.01
X171.704Y-150.55
X171.704Y-153.09
X173.16Y-105.08
X173.16Y-112.7
X177.546Y-146.984
X177.546Y-154.604
X177.78Y-99.47
X178.19Y-102.08
X178.19Y-109.7
X185.4Y-99.47
X186.706Y-147.746
X187.63Y-99.49
X188.706Y-147.746
X189.3Y-106.825
X189.3Y-109.365
X195.25Y-99.49
X196.92Y-106.825
X196.92Y-109.365
X199.63Y-108.68
X199.63Y-116.3
X199.64Y-98.84
X199.64Y-106.46
X202.184Y-149.016
X202.184Y-151.556
X202.184Y-154.096
X204.5Y-119.49
X204.5Y-127.11
X207.09Y-138.45
X207.1Y-131.525
X207.1Y-134.065
X207.3Y-126.66
X207.5Y-222.0
X207.597Y-206.0
X208.026Y-147.746
X208.026Y-155.366
X212.5Y-222.0
X212.597Y-206.0
X213.48Y-142.09
X213.48Y-149.71
X214.71Y-138.45
X214.72Y-131.525
X214.72Y-134.065
X214.92Y-126.66
X214.92Y-191.5
X217.46Y-206.0
X217.46Y-215.0
X218.49Y-138.07
X218.49Y-145.69
X220.0Y-206.0
X220.0Y-215.0
X221.32Y-100.07
X222.54Y-206.0
X222.54Y-215.0
X224.5Y-138.12
X224.5Y-145.74
X225.08Y-191.5
X227.68Y-170.32
X227.68Y-177.94
X227.86Y-184.8
X227.86Y-192.42
X228.94Y-100.07
X228.99Y-210.59
X229.06Y-204.855
X229.06Y-207.395
X229.1Y-131.425
X229.1Y-133.965
X229.14Y-138.14
X229.14Y-145.76
X230.0Y-220.0
X231.21Y-171.61
X231.22Y-165.865
X231.22Y-168.405
X231.22Y-185.945
X231.22Y-188.485
X231.73Y-192.03
X231.74Y-175.15
X234.48Y-138.04
X234.48Y-145.66
X235.0Y-220.0
X236.61Y-210.59
X236.68Y-204.855
X236.68Y-207.395
X236.72Y-131.425
X236.72Y-133.965
X238.51Y-152.15
X238.83Y-171.61
X238.84Y-165.865
X238.84Y-168.405
X238.84Y-185.945
X238.84Y-188.485
X239.35Y-192.03
X239.36Y-175.15
X239.45Y-138.06
X239.45Y-145.68
X240.28Y-178.3
X242.05Y-184.87
X242.05Y-192.49
X242.32Y-154.76
X242.32Y-162.38
X243.25Y-214.32
X243.25Y-221.94
X243.54Y-130.31
X243.54Y-137.93
X246.13Y-152.15
X246.33Y-211.26
X246.33Y-218.88
X246.75Y-185.01
X246.75Y-192.63
X246.89Y-99.42
X246.89Y-107.04
X247.03Y-137.53
X247.13Y-126.855
X247.13Y-129.395
X247.9Y-178.3
X254.65Y-137.53
X254.75Y-126.855
X254.75Y-129.395
X256.28Y-204.44
X256.29Y-201.31
X257.53Y-132.32
X257.53Y-139.94
X262.55Y-132.29
X262.55Y-139.91
X263.9Y-204.44
X263.91Y-201.31
T7
X141.125Y-103.3
X143.665Y-103.3
X151.69Y-101.95
X151.69Y-104.49
X178.25Y-112.095
X178.25Y-114.635
X191.0Y-206.46
X191.0Y-209.0
X206.255Y-143.62
X208.795Y-143.62
X214.875Y-184.62
X217.415Y-184.62
X223.74Y-133.305
X223.74Y-135.845
X227.73Y-165.525
X227.73Y-168.065
X230.64Y-182.0
X233.18Y-182.0
X237.87Y-214.36
X240.41Y-214.36
X242.76Y-125.255
X242.76Y-127.795
T8
X74.676Y-181.356
X74.676Y-183.896
X74.676Y-186.436
X78.232Y-55.118
X78.232Y-57.658
X78.232Y-60.198
X78.232Y-62.738
X78.232Y-65.278
X78.232Y-67.818
X78.232Y-70.358
X78.232Y-72.898
X78.232Y-75.438
X78.232Y-77.978
X78.232Y-80.518
X78.232Y-83.058
X85.598Y-126.238
X85.598Y-128.778
X85.598Y-131.318
X85.598Y-133.858
X85.598Y-136.398
X85.598Y-138.938
X85.598Y-141.478
X85.598Y-144.018
X87.376Y-37.348
X87.376Y-39.888
X89.916Y-37.348
X89.916Y-39.888
X92.456Y-37.348
X92.456Y-39.888
X94.996Y-37.348
X94.996Y-39.888
X97.536Y-37.348
X97.536Y-39.888
X100.076Y-37.348
X100.076Y-39.888
X101.0Y-168.5
X101.0Y-219.5
X102.616Y-37.348
X102.616Y-39.888
X105.156Y-37.348
X105.156Y-39.888
X107.696Y-37.348
X107.696Y-39.888
X110.236Y-37.348
X110.236Y-39.888
X112.776Y-37.348
X112.776Y-39.888
X115.316Y-37.348
X115.316Y-39.888
X117.856Y-37.348
X117.856Y-39.888
X119.888Y-158.75
X120.396Y-37.348
X120.396Y-39.888
X122.428Y-158.75
X122.936Y-37.348
X122.936Y-39.888
X124.968Y-158.75
X125.476Y-37.348
X125.476Y-39.888
X125.5Y-168.5
X125.5Y-219.5
X127.508Y-158.75
X127.95Y-117.35
X128.016Y-37.348
X128.016Y-39.888
X130.5Y-168.5
X130.5Y-219.5
X134.62Y-142.92
X137.16Y-142.92
X139.7Y-142.92
X139.95Y-117.35
X142.24Y-142.92
X149.32Y-38.613
X151.86Y-38.613
X154.4Y-38.613
X155.0Y-168.5
X155.0Y-219.5
X155.95Y-117.35
X156.94Y-38.613
X159.48Y-38.613
X160.0Y-168.5
X160.0Y-219.5
X161.925Y-142.92
X162.02Y-38.613
X164.465Y-142.92
X164.56Y-38.613
X167.005Y-142.92
X167.1Y-38.613
X167.95Y-117.35
X169.545Y-142.92
X175.796Y-38.8
X178.336Y-38.8
X180.876Y-38.8
X184.0Y-117.35
X184.5Y-168.5
X184.5Y-219.5
X185.861Y-38.8
X188.401Y-38.8
X190.941Y-38.8
X192.024Y-143.936
X194.564Y-143.936
X195.926Y-38.8
X196.0Y-117.35
X197.104Y-143.936
X198.466Y-38.8
X199.644Y-143.936
X200.0Y-205.5
X200.0Y-210.5
X201.006Y-38.8
X205.99Y-38.8
X208.425Y-105.35
X208.53Y-38.8
X211.07Y-38.8
X216.055Y-38.8
X218.595Y-38.8
X220.425Y-105.35
X221.135Y-38.8
X226.12Y-38.8
X228.66Y-38.8
X229.95Y-105.35
X231.2Y-38.8
X236.8Y-38.8
X236.8Y-41.34
X236.8Y-43.88
X241.7Y-38.8
X241.7Y-41.34
X241.7Y-43.88
X241.95Y-105.35
X246.8Y-38.8
X246.8Y-41.34
X246.8Y-43.88
X251.475Y-105.35
X252.45Y-182.15
X252.45Y-194.15
X252.45Y-209.05
X252.45Y-221.05
X252.65Y-152.05
X252.65Y-164.05
X263.475Y-105.35
T9
X75.438Y-111.216
X75.438Y-120.416
X80.01Y-111.216
X80.01Y-120.416
X84.0Y-206.9
X84.0Y-216.1
X84.836Y-111.216
X84.836Y-120.416
X89.662Y-111.216
X89.662Y-120.416
X94.488Y-111.216
X94.488Y-120.416
X99.314Y-111.216
X99.314Y-120.416
X103.886Y-111.216
X103.886Y-120.416
X108.712Y-111.216
X108.712Y-120.416
X118.78Y-109.4
X127.98Y-109.4
X131.044Y-137.586
X140.244Y-137.586
X155.66Y-102.69
X155.66Y-111.89
X158.984Y-137.586
X168.184Y-137.586
X177.65Y-117.85
X177.65Y-127.05
X187.178Y-139.11
X193.92Y-224.0
X196.378Y-139.11
X196.46Y-224.0
X199.0Y-224.0
X200.01Y-96.11
X209.21Y-96.11
X214.92Y-197.5
X219.92Y-224.0
X222.46Y-224.0
X224.31Y-103.92
X224.31Y-113.12
X225.0Y-224.0
X225.08Y-197.5
X236.12Y-198.39
X242.85Y-92.29
X242.85Y-94.79
X245.32Y-198.39
X245.58Y-155.61
X245.58Y-164.81
X247.15Y-110.25
X247.15Y-119.45
X249.01Y-226.3
X252.0Y-201.0
X252.0Y-203.5
X252.2Y-173.3
X252.2Y-175.8
X252.295Y-143.3
X252.295Y-145.8
X253.85Y-92.28
X253.85Y-94.78
X258.21Y-226.3
X261.57Y-92.86
X261.57Y-95.36
X264.855Y-39.729
X264.855Y-42.229
X264.855Y-44.729
X264.855Y-47.229
X264.855Y-49.729
X264.855Y-56.239
X264.855Y-58.739
X264.855Y-61.239
X264.855Y-63.739
X264.855Y-66.239
X264.855Y-72.749
X264.855Y-75.249
X264.855Y-77.749
X264.855Y-80.249
X264.855Y-82.749
T10
X91.5Y-206.2
X91.5Y-224.0
X96.5Y-206.2
X96.5Y-224.0
T11
X229.45Y-227.5
X242.15Y-227.5
T12
X127.95Y-129.55
X134.0Y-115.4
X135.382Y-163.322
X140.0Y-129.6
X140.462Y-163.322
X145.542Y-163.322
X150.622Y-163.322
X155.95Y-129.55
X162.0Y-115.4
X168.0Y-129.6
X184.0Y-129.55
X190.05Y-115.4
X196.05Y-129.6
X208.425Y-117.55
X214.475Y-103.4
X220.475Y-117.6
X229.95Y-117.55
X236.0Y-103.4
X242.0Y-117.6
X250.5Y-188.1
X250.5Y-215.0
X250.7Y-158.0
X251.475Y-117.55
X257.525Y-103.4
X263.525Y-117.6
X264.65Y-194.15
X264.65Y-221.05
X264.7Y-182.1
X264.7Y-209.0
X264.85Y-164.05
X264.9Y-152.0
T13
X191.1Y-182.28
X191.1Y-197.52
X199.7Y-182.28
X199.7Y-197.52
X208.3Y-182.28
X208.3Y-197.52
T14
X74.0Y-34.0
X110.0Y-223.0
X266.0Y-34.0
X266.0Y-226.0
T8
G00X78.25Y-221.93
M15
G01X78.25Y-223.93
M16
G05
G00X80.25Y-227.63
M15
G01X82.25Y-227.63
M16
G05
G00X84.25Y-221.93
M15
G01X84.25Y-223.93
M16
G05
M30
